<mxfile modified="2023-04-16T08:04:55.908Z" host="app.diagrams.net" agent="Mozilla/5.0 (Windows NT 10.0; Win64; x64) AppleWebKit/537.36 (KHTML, like Gecko) Chrome/112.0.0.0 Safari/537.36" etag="73a-8RKu02IQLSnyitOo" version="21.1.8" type="github">
  <diagram id="f106602c-feb2-e66a-4537-3a34d633f6aa" name="Page-1">
    <mxGraphModel dx="1674" dy="756" grid="1" gridSize="10" guides="1" tooltips="1" connect="1" arrows="1" fold="1" page="1" pageScale="1" pageWidth="1169" pageHeight="827" background="none" math="0" shadow="0">
      <root>
        <mxCell id="0" />
        <mxCell id="1" parent="0" />
        <mxCell id="14" value="&lt;b&gt;Google &lt;/b&gt;Cloud Platform" style="fillColor=#F6F6F6;strokeColor=none;shadow=0;gradientColor=none;fontSize=14;align=left;spacing=10;fontColor=#717171;9E9E9E;verticalAlign=top;spacingTop=-4;fontStyle=0;spacingLeft=40;html=1;" parent="1" vertex="1">
          <mxGeometry x="250" y="130" width="1170" height="670" as="geometry" />
        </mxCell>
        <mxCell id="15" value="" style="shape=mxgraph.gcp2.google_cloud_platform;fillColor=#F6F6F6;strokeColor=none;shadow=0;gradientColor=none;" parent="14" vertex="1">
          <mxGeometry width="23" height="20" relative="1" as="geometry">
            <mxPoint x="20" y="10" as="offset" />
          </mxGeometry>
        </mxCell>
        <mxCell id="fJgO3W6yPN55QZMSzdzz-30" value="" style="strokeColor=#dddddd;shadow=1;strokeWidth=1;rounded=1;absoluteArcSize=1;arcSize=2;" parent="14" vertex="1">
          <mxGeometry x="382.26" y="37.83" width="192.74" height="68.04" as="geometry" />
        </mxCell>
        <mxCell id="fJgO3W6yPN55QZMSzdzz-31" value="&lt;font color=&quot;#000000&quot;&gt;Microservice&amp;nbsp;&lt;br&gt;&lt;/font&gt;Get_Segmentation()&lt;br&gt;Cloud Run" style="editableCssRules=.*;html=1;fontColor=#999999;shape=image;verticalLabelPosition=middle;labelBackgroundColor=#ffffff;verticalAlign=middle;labelPosition=right;align=left;spacingLeft=20;part=1;points=[];imageAspect=0;image=data:image/svg+xml,PHN2ZyB4bWxucz0iaHR0cDovL3d3dy53My5vcmcvMjAwMC9zdmciIHhtbG5zOnY9Imh0dHBzOi8vdmVjdGEuaW8vbmFubyIgd2lkdGg9IjM2NS40NjQ5OTY3NzA0MjQ5MyIgaGVpZ2h0PSIzNzkuMjIyOTk0NDYzNTc3OTUiIHZpZXdCb3g9IjAgMCA5Ni42OTU5OTkxNDU1MDc4MSAxMDAuMzM1OTk4NTM1MTU2MjUiPiYjeGE7PHN0eWxlIHR5cGU9InRleHQvY3NzIj4mI3hhOwkuc3Qwe2ZpbGw6IzQyODVmNDt9JiN4YTsJLnN0MXtmaWxsOiNhZWNiZmE7fSYjeGE7PC9zdHlsZT4mI3hhOwk8cGF0aCBjbGFzcz0ic3QwIiBkPSJNMjkuNzk0IDEwMC4zMzZMNDYuOTIgNTAuMTY4aDQ5Ljc3NnpNMCA5OS42NzFsMTIuOTc2LTQ5LjUwMkgyOS4yMkwxNi44OTcgOTIuMDU0eiIvPiYjeGE7CTxwYXRoIGNsYXNzPSJzdDEiIGQ9Ik0yOS43OTQgMEw0Ni45MiA1MC4xNjhoNDkuNzc2ek0wIC42NjZsMTIuOTc2IDQ5LjUwMkgyOS4yMkwxNi44OTcgOC4yODN6Ii8+JiN4YTs8L3N2Zz4=;" parent="fJgO3W6yPN55QZMSzdzz-30" vertex="1">
          <mxGeometry width="20" height="20" relative="1" as="geometry">
            <mxPoint x="15" y="15" as="offset" />
          </mxGeometry>
        </mxCell>
        <mxCell id="fJgO3W6yPN55QZMSzdzz-96" value="" style="shape=image;html=1;verticalAlign=top;verticalLabelPosition=bottom;labelBackgroundColor=#ffffff;imageAspect=0;aspect=fixed;image=https://cdn3.iconfinder.com/data/icons/UltimateGnome/128x128/mimetypes/text-x-c-plus--plus.png" parent="fJgO3W6yPN55QZMSzdzz-30" vertex="1">
          <mxGeometry x="122.08531636177959" y="2.297027928154018" width="2.329500676428768" height="2.329500676428768" as="geometry" />
        </mxCell>
        <mxCell id="fJgO3W6yPN55QZMSzdzz-56" style="edgeStyle=orthogonalEdgeStyle;rounded=0;orthogonalLoop=1;jettySize=auto;html=1;" parent="14" source="fJgO3W6yPN55QZMSzdzz-46" edge="1">
          <mxGeometry relative="1" as="geometry">
            <mxPoint x="377.25854186579454" y="76.5870795835337" as="targetPoint" />
            <Array as="points">
              <mxPoint x="207.492198026187" y="76.5870795835337" />
            </Array>
          </mxGeometry>
        </mxCell>
        <mxCell id="fJgO3W6yPN55QZMSzdzz-46" value="API Gateway" style="sketch=0;points=[[0,0,0],[0.25,0,0],[0.5,0,0],[0.75,0,0],[1,0,0],[0,1,0],[0.25,1,0],[0.5,1,0],[0.75,1,0],[1,1,0],[0,0.25,0],[0,0.5,0],[0,0.75,0],[1,0.25,0],[1,0.5,0],[1,0.75,0]];outlineConnect=0;fontColor=#232F3E;gradientColor=#945DF2;gradientDirection=north;fillColor=#5A30B5;strokeColor=#ffffff;dashed=0;verticalLabelPosition=bottom;verticalAlign=top;align=center;html=1;fontSize=12;fontStyle=0;aspect=fixed;shape=mxgraph.aws4.resourceIcon;resIcon=mxgraph.aws4.api_gateway;" parent="14" vertex="1">
          <mxGeometry x="87.45661411610259" y="225.99466106616495" width="110" height="110" as="geometry" />
        </mxCell>
        <mxCell id="fJgO3W6yPN55QZMSzdzz-198" style="edgeStyle=orthogonalEdgeStyle;rounded=0;orthogonalLoop=1;jettySize=auto;html=1;" parent="14" source="fJgO3W6yPN55QZMSzdzz-83" target="fJgO3W6yPN55QZMSzdzz-125" edge="1">
          <mxGeometry relative="1" as="geometry">
            <Array as="points">
              <mxPoint x="650" y="253" />
              <mxPoint x="650" y="215" />
            </Array>
          </mxGeometry>
        </mxCell>
        <mxCell id="fJgO3W6yPN55QZMSzdzz-83" value="" style="strokeColor=#dddddd;shadow=1;strokeWidth=1;rounded=1;absoluteArcSize=1;arcSize=2;" parent="14" vertex="1">
          <mxGeometry x="377.26" y="225.99" width="182.74" height="54.01" as="geometry" />
        </mxCell>
        <mxCell id="fJgO3W6yPN55QZMSzdzz-84" value="&lt;font color=&quot;#000000&quot;&gt;Microservice&lt;br&gt;&lt;/font&gt;Get_XX&lt;br&gt;Cloud Run" style="editableCssRules=.*;html=1;fontColor=#999999;shape=image;verticalLabelPosition=middle;labelBackgroundColor=#ffffff;verticalAlign=middle;labelPosition=right;align=left;spacingLeft=20;part=1;points=[];imageAspect=0;image=data:image/svg+xml,PHN2ZyB4bWxucz0iaHR0cDovL3d3dy53My5vcmcvMjAwMC9zdmciIHhtbG5zOnY9Imh0dHBzOi8vdmVjdGEuaW8vbmFubyIgd2lkdGg9IjM2NS40NjQ5OTY3NzA0MjQ5MyIgaGVpZ2h0PSIzNzkuMjIyOTk0NDYzNTc3OTUiIHZpZXdCb3g9IjAgMCA5Ni42OTU5OTkxNDU1MDc4MSAxMDAuMzM1OTk4NTM1MTU2MjUiPiYjeGE7PHN0eWxlIHR5cGU9InRleHQvY3NzIj4mI3hhOwkuc3Qwe2ZpbGw6IzQyODVmNDt9JiN4YTsJLnN0MXtmaWxsOiNhZWNiZmE7fSYjeGE7PC9zdHlsZT4mI3hhOwk8cGF0aCBjbGFzcz0ic3QwIiBkPSJNMjkuNzk0IDEwMC4zMzZMNDYuOTIgNTAuMTY4aDQ5Ljc3NnpNMCA5OS42NzFsMTIuOTc2LTQ5LjUwMkgyOS4yMkwxNi44OTcgOTIuMDU0eiIvPiYjeGE7CTxwYXRoIGNsYXNzPSJzdDEiIGQ9Ik0yOS43OTQgMEw0Ni45MiA1MC4xNjhoNDkuNzc2ek0wIC42NjZsMTIuOTc2IDQ5LjUwMkgyOS4yMkwxNi44OTcgOC4yODN6Ii8+JiN4YTs8L3N2Zz4=;" parent="fJgO3W6yPN55QZMSzdzz-83" vertex="1">
          <mxGeometry width="20" height="20" relative="1" as="geometry">
            <mxPoint x="15" y="15" as="offset" />
          </mxGeometry>
        </mxCell>
        <mxCell id="fJgO3W6yPN55QZMSzdzz-98" value="" style="shape=image;html=1;verticalAlign=top;verticalLabelPosition=bottom;labelBackgroundColor=#ffffff;imageAspect=0;aspect=fixed;image=https://cdn4.iconfinder.com/data/icons/scripting-and-programming-languages/512/Python_logo-128.png" parent="fJgO3W6yPN55QZMSzdzz-83" vertex="1">
          <mxGeometry x="154.43969608545632" y="22.044897959183675" width="18.174954009476185" height="18.174954009476185" as="geometry" />
        </mxCell>
        <mxCell id="fJgO3W6yPN55QZMSzdzz-87" style="edgeStyle=orthogonalEdgeStyle;rounded=0;orthogonalLoop=1;jettySize=auto;html=1;entryX=0;entryY=0.25;entryDx=0;entryDy=0;" parent="14" source="fJgO3W6yPN55QZMSzdzz-46" target="fJgO3W6yPN55QZMSzdzz-83" edge="1">
          <mxGeometry relative="1" as="geometry">
            <mxPoint x="284.21499313069967" y="465.8001069752622" as="sourcePoint" />
            <mxPoint x="377.25854186579454" y="295.04858528082644" as="targetPoint" />
            <Array as="points" />
          </mxGeometry>
        </mxCell>
        <mxCell id="fJgO3W6yPN55QZMSzdzz-90" style="edgeStyle=orthogonalEdgeStyle;rounded=0;orthogonalLoop=1;jettySize=auto;html=1;" parent="14" source="fJgO3W6yPN55QZMSzdzz-46" edge="1">
          <mxGeometry relative="1" as="geometry">
            <mxPoint x="349.80306846855336" y="307.6038442289467" as="sourcePoint" />
            <mxPoint x="377.25854186579454" y="189.58441011661614" as="targetPoint" />
            <Array as="points">
              <mxPoint x="296.4174257516957" y="252.36070485721754" />
              <mxPoint x="296.4174257516957" y="189.58441011661614" />
            </Array>
          </mxGeometry>
        </mxCell>
        <mxCell id="fJgO3W6yPN55QZMSzdzz-94" value="" style="edgeStyle=orthogonalEdgeStyle;rounded=0;orthogonalLoop=1;jettySize=auto;html=1;" parent="14" source="fJgO3W6yPN55QZMSzdzz-91" target="fJgO3W6yPN55QZMSzdzz-46" edge="1">
          <mxGeometry relative="1" as="geometry">
            <Array as="points">
              <mxPoint x="94.31463546644864" y="390.46855328654055" />
              <mxPoint x="94.31463546644864" y="390.46855328654055" />
            </Array>
          </mxGeometry>
        </mxCell>
        <mxCell id="fJgO3W6yPN55QZMSzdzz-91" value="gRPC API &lt;br&gt;&amp;nbsp; configuration document" style="verticalLabelPosition=bottom;html=1;verticalAlign=top;align=center;strokeColor=none;fillColor=#00BEF2;shape=mxgraph.azure.cloud_services_configuration_file;pointerEvents=1;" parent="14" vertex="1">
          <mxGeometry x="79.99759676174904" y="389.9991779614578" width="53.89407740939922" height="50.2210357924811" as="geometry" />
        </mxCell>
        <mxCell id="fJgO3W6yPN55QZMSzdzz-106" value="Req_4: Delete &lt;br&gt;Scan" style="text;html=1;align=center;verticalAlign=middle;resizable=0;points=[];autosize=1;strokeColor=none;fillColor=none;" parent="14" vertex="1">
          <mxGeometry x="262.2626192751938" y="447.24468297725423" width="100" height="40" as="geometry" />
        </mxCell>
        <mxCell id="fJgO3W6yPN55QZMSzdzz-107" value="Route&lt;br&gt;Requests /&lt;br&gt;&amp;nbsp;balance load&amp;nbsp;" style="text;html=1;align=center;verticalAlign=middle;resizable=0;points=[];autosize=1;strokeColor=none;fillColor=none;" parent="14" vertex="1">
          <mxGeometry x="92.78815481879829" y="156.98494400999965" width="100" height="60" as="geometry" />
        </mxCell>
        <mxCell id="fJgO3W6yPN55QZMSzdzz-108" value="Req_2: Upload&lt;br&gt;&amp;nbsp;Scan" style="text;html=1;align=center;verticalAlign=middle;resizable=0;points=[];autosize=1;strokeColor=none;fillColor=none;" parent="14" vertex="1">
          <mxGeometry x="262.2626192751938" y="497.99536592338245" width="100" height="40" as="geometry" />
        </mxCell>
        <mxCell id="fJgO3W6yPN55QZMSzdzz-113" style="edgeStyle=orthogonalEdgeStyle;rounded=0;orthogonalLoop=1;jettySize=auto;html=1;exitX=1;exitY=0.5;exitDx=0;exitDy=0;" parent="14" target="fJgO3W6yPN55QZMSzdzz-110" edge="1" source="r7-mcl1aZyQmIgYv29nD-29">
          <mxGeometry relative="1" as="geometry">
            <mxPoint x="579.3613321510417" y="516.0211427677433" as="targetPoint" />
            <mxPoint x="646.7289289127907" y="560" as="sourcePoint" />
            <Array as="points">
              <mxPoint x="570" y="460" />
            </Array>
          </mxGeometry>
        </mxCell>
        <mxCell id="fJgO3W6yPN55QZMSzdzz-115" value="Save Images" style="edgeLabel;html=1;align=center;verticalAlign=middle;resizable=0;points=[];" parent="fJgO3W6yPN55QZMSzdzz-113" vertex="1" connectable="0">
          <mxGeometry x="0.2596" y="-1" relative="1" as="geometry">
            <mxPoint x="-116" y="-2" as="offset" />
          </mxGeometry>
        </mxCell>
        <mxCell id="fJgO3W6yPN55QZMSzdzz-110" value="File Storage" style="sketch=0;points=[[0,0,0],[0.25,0,0],[0.5,0,0],[0.75,0,0],[1,0,0],[0,1,0],[0.25,1,0],[0.5,1,0],[0.75,1,0],[1,1,0],[0,0.25,0],[0,0.5,0],[0,0.75,0],[1,0.25,0],[1,0.5,0],[1,0.75,0]];outlineConnect=0;fontColor=#232F3E;gradientColor=#60A337;gradientDirection=north;fillColor=#277116;strokeColor=#ffffff;dashed=0;verticalLabelPosition=bottom;verticalAlign=top;align=center;html=1;fontSize=12;fontStyle=0;aspect=fixed;shape=mxgraph.aws4.resourceIcon;resIcon=mxgraph.aws4.elastic_file_system;" parent="14" vertex="1">
          <mxGeometry x="1002.5924123357555" y="413.0708382076974" width="92" height="92" as="geometry" />
        </mxCell>
        <mxCell id="r7-mcl1aZyQmIgYv29nD-25" style="edgeStyle=orthogonalEdgeStyle;rounded=0;orthogonalLoop=1;jettySize=auto;html=1;entryX=0;entryY=0.75;entryDx=0;entryDy=0;" edge="1" parent="14" source="fJgO3W6yPN55QZMSzdzz-109" target="fJgO3W6yPN55QZMSzdzz-125">
          <mxGeometry relative="1" as="geometry">
            <Array as="points">
              <mxPoint x="858" y="590" />
              <mxPoint x="858" y="242" />
            </Array>
          </mxGeometry>
        </mxCell>
        <mxCell id="r7-mcl1aZyQmIgYv29nD-34" value="ftech metadata" style="edgeLabel;html=1;align=center;verticalAlign=middle;resizable=0;points=[];" vertex="1" connectable="0" parent="r7-mcl1aZyQmIgYv29nD-25">
          <mxGeometry x="0.4646" y="-1" relative="1" as="geometry">
            <mxPoint y="-18" as="offset" />
          </mxGeometry>
        </mxCell>
        <mxCell id="fJgO3W6yPN55QZMSzdzz-109" value="" style="image;aspect=fixed;perimeter=ellipsePerimeter;html=1;align=center;shadow=0;dashed=0;spacingTop=3;image=img/lib/active_directory/database.svg;" parent="14" vertex="1">
          <mxGeometry x="996.7" y="538" width="108.12" height="80" as="geometry" />
        </mxCell>
        <mxCell id="fJgO3W6yPN55QZMSzdzz-111" style="edgeStyle=orthogonalEdgeStyle;rounded=0;orthogonalLoop=1;jettySize=auto;html=1;" parent="14" source="fJgO3W6yPN55QZMSzdzz-46" target="r7-mcl1aZyQmIgYv29nD-29" edge="1">
          <mxGeometry relative="1" as="geometry">
            <mxPoint x="232.31042067321545" y="376.65776844360823" as="sourcePoint" />
            <mxPoint x="330" y="452" as="targetPoint" />
            <Array as="points">
              <mxPoint x="229" y="310" />
              <mxPoint x="229" y="490" />
            </Array>
          </mxGeometry>
        </mxCell>
        <mxCell id="fJgO3W6yPN55QZMSzdzz-116" value="Store Metadata&amp;nbsp;&lt;br&gt;of images" style="edgeLabel;html=1;align=center;verticalAlign=middle;resizable=0;points=[];" parent="fJgO3W6yPN55QZMSzdzz-111" vertex="1" connectable="0">
          <mxGeometry x="0.821" y="1" relative="1" as="geometry">
            <mxPoint x="366" y="81" as="offset" />
          </mxGeometry>
        </mxCell>
        <mxCell id="fJgO3W6yPN55QZMSzdzz-123" value="&lt;font style=&quot;font-size: 10px;&quot;&gt;Digital Model&lt;br&gt;&amp;nbsp;Step 1&lt;/font&gt;" style="editableCssRules=.*;html=1;shape=image;verticalLabelPosition=bottom;labelBackgroundColor=#ffffff;verticalAlign=top;aspect=fixed;imageAspect=0;image=data:image/svg+xml,PHN2ZyB4bWxucz0iaHR0cDovL3d3dy53My5vcmcvMjAwMC9zdmciIHhtbG5zOnY9Imh0dHBzOi8vdmVjdGEuaW8vbmFubyIgd2lkdGg9IjE2LjAwMDAwMTkwNzM0ODYzMyIgaGVpZ2h0PSIxNi4wMDAwMDE5MDczNDg2MzMiIHZpZXdCb3g9Ii03LjE4NzExMDA2NTA3Mzg4N2UtMTMgLTIuNDg2ODk5MTA5MjkyMjI5N2UtMTUgMTYuMDAwMDAxOTA3MzQ4NjMzIDE2LjAwMDAwMTkwNzM0ODYzMyI+JiN4YTsJPHN0eWxlIHR5cGU9InRleHQvY3NzIj4mI3hhOwkuc3Qwe2ZpbGw6IzQyODVmNDt9JiN4YTsJPC9zdHlsZT4mI3hhOwk8cGF0aCBjbGFzcz0ic3QwIiBkPSJNOS44NCA1Ljc3SDYuMTZhLjM5LjM5IDAgMCAwLS4zOS4zOXYzLjY4YS4zOS4zOSAwIDAgMCAuMzkuMzloMy42N2EuMzkuMzkgMCAwIDAgLjM5LS4zOVY2LjE2YS4zOS4zOSAwIDAgMC0uMzktLjM5bTUuODItLjI5YS4zNS4zNSAwIDAgMCAuMzUtLjM1di0uNTdhLjM1LjM1IDAgMCAwLS4zNS0uMzVoLTEuNzlWMi41NGEuMzkuMzkgMCAwIDAtLjM5LS4zOUgxMS44Vi4zNWEuMzUuMzUgMCAwIDAtLjM1LS4zNWgtLjU4YS4zNS4zNSAwIDAgMC0uMzUuMzV2MS43OUg4LjYzVi4zNUEuMzUuMzUgMCAwIDAgOC4yOSAwaC0uNThhLjM1LjM1IDAgMCAwLS4zNS4zNXYxLjc5SDUuNDhWLjM1QS4zNS4zNSAwIDAgMCA1LjEzIDBoLS41OGEuMzUuMzUgMCAwIDAtLjM1LjM1djEuNzlIMi41M2EuMzkuMzkgMCAwIDAtLjM5LjM5VjQuMkguMzVhLjM1LjM1IDAgMCAwLS4zNS4zNXYuNThhLjM1LjM1IDAgMCAwIC4zNS4zNWgxLjc5djEuODhILjM1YS4zNS4zNSAwIDAgMC0uMzUuMzV2LjU4YS4zNS4zNSAwIDAgMCAuMzUuMzVoMS43OXYxLjg5SC4zNWEuMzUuMzUgMCAwIDAtLjM1LjM1di41N2EuMzUuMzUgMCAwIDAgLjM1LjM1aDEuNzl2MS42N2EuMzkuMzkgMCAwIDAgLjM5LjM5SDQuMnYxLjc5YS4zNS4zNSAwIDAgMCAuMzUuMzVoLjU4YS4zNS4zNSAwIDAgMCAuMzUtLjM1di0xLjc5aDEuODh2MS43OWEuMzUuMzUgMCAwIDAgLjM1LjM1aC41OGEuMzUuMzUgMCAwIDAgLjM1LS4zNXYtMS43OWgxLjg5djEuNzlhLjM1LjM1IDAgMCAwIC4zNS4zNWguNTdhLjM1LjM1IDAgMCAwIC4zNS0uMzV2LTEuNzloMS42OGEuMzkuMzkgMCAwIDAgLjM5LS4zOVYxMS44aDEuNzlhLjM1LjM1IDAgMCAwIC4zNC0uMzV2LS41N2EuMzUuMzUgMCAwIDAtLjM1LS4zNWgtMS43OVY4LjY0aDEuNzlhLjM1LjM1IDAgMCAwIC4zNS0uMzV2LS41OGEuMzUuMzUgMCAwIDAtLjM1LS4zNWgtMS43OVY1LjQ4em0tMy4xMSA3LjA3SDMuNDVWMy40Nmg5LjA5eiIvPiYjeGE7PC9zdmc+;" parent="14" vertex="1">
          <mxGeometry x="820.0023775579534" y="41.611965289558114" width="33.78" height="33.78" as="geometry" />
        </mxCell>
        <mxCell id="fJgO3W6yPN55QZMSzdzz-124" value="&lt;font style=&quot;font-size: 10px;&quot;&gt;Digital Model &lt;br&gt;Step&lt;/font&gt;..." style="editableCssRules=.*;html=1;shape=image;verticalLabelPosition=bottom;labelBackgroundColor=#ffffff;verticalAlign=top;aspect=fixed;imageAspect=0;image=data:image/svg+xml,PHN2ZyB4bWxucz0iaHR0cDovL3d3dy53My5vcmcvMjAwMC9zdmciIHhtbG5zOnY9Imh0dHBzOi8vdmVjdGEuaW8vbmFubyIgd2lkdGg9IjE2LjAwMDAwMTkwNzM0ODYzMyIgaGVpZ2h0PSIxNi4wMDAwMDE5MDczNDg2MzMiIHZpZXdCb3g9Ii03LjE4NzExMDA2NTA3Mzg4N2UtMTMgLTIuNDg2ODk5MTA5MjkyMjI5N2UtMTUgMTYuMDAwMDAxOTA3MzQ4NjMzIDE2LjAwMDAwMTkwNzM0ODYzMyI+JiN4YTsJPHN0eWxlIHR5cGU9InRleHQvY3NzIj4mI3hhOwkuc3Qwe2ZpbGw6IzQyODVmNDt9JiN4YTsJPC9zdHlsZT4mI3hhOwk8cGF0aCBjbGFzcz0ic3QwIiBkPSJNOS44NCA1Ljc3SDYuMTZhLjM5LjM5IDAgMCAwLS4zOS4zOXYzLjY4YS4zOS4zOSAwIDAgMCAuMzkuMzloMy42N2EuMzkuMzkgMCAwIDAgLjM5LS4zOVY2LjE2YS4zOS4zOSAwIDAgMC0uMzktLjM5bTUuODItLjI5YS4zNS4zNSAwIDAgMCAuMzUtLjM1di0uNTdhLjM1LjM1IDAgMCAwLS4zNS0uMzVoLTEuNzlWMi41NGEuMzkuMzkgMCAwIDAtLjM5LS4zOUgxMS44Vi4zNWEuMzUuMzUgMCAwIDAtLjM1LS4zNWgtLjU4YS4zNS4zNSAwIDAgMC0uMzUuMzV2MS43OUg4LjYzVi4zNUEuMzUuMzUgMCAwIDAgOC4yOSAwaC0uNThhLjM1LjM1IDAgMCAwLS4zNS4zNXYxLjc5SDUuNDhWLjM1QS4zNS4zNSAwIDAgMCA1LjEzIDBoLS41OGEuMzUuMzUgMCAwIDAtLjM1LjM1djEuNzlIMi41M2EuMzkuMzkgMCAwIDAtLjM5LjM5VjQuMkguMzVhLjM1LjM1IDAgMCAwLS4zNS4zNXYuNThhLjM1LjM1IDAgMCAwIC4zNS4zNWgxLjc5djEuODhILjM1YS4zNS4zNSAwIDAgMC0uMzUuMzV2LjU4YS4zNS4zNSAwIDAgMCAuMzUuMzVoMS43OXYxLjg5SC4zNWEuMzUuMzUgMCAwIDAtLjM1LjM1di41N2EuMzUuMzUgMCAwIDAgLjM1LjM1aDEuNzl2MS42N2EuMzkuMzkgMCAwIDAgLjM5LjM5SDQuMnYxLjc5YS4zNS4zNSAwIDAgMCAuMzUuMzVoLjU4YS4zNS4zNSAwIDAgMCAuMzUtLjM1di0xLjc5aDEuODh2MS43OWEuMzUuMzUgMCAwIDAgLjM1LjM1aC41OGEuMzUuMzUgMCAwIDAgLjM1LS4zNXYtMS43OWgxLjg5djEuNzlhLjM1LjM1IDAgMCAwIC4zNS4zNWguNTdhLjM1LjM1IDAgMCAwIC4zNS0uMzV2LTEuNzloMS42OGEuMzkuMzkgMCAwIDAgLjM5LS4zOVYxMS44aDEuNzlhLjM1LjM1IDAgMCAwIC4zNC0uMzV2LS41N2EuMzUuMzUgMCAwIDAtLjM1LS4zNWgtMS43OVY4LjY0aDEuNzlhLjM1LjM1IDAgMCAwIC4zNS0uMzV2LS41OGEuMzUuMzUgMCAwIDAtLjM1LS4zNWgtMS43OVY1LjQ4em0tMy4xMSA3LjA3SDMuNDVWMy40Nmg5LjA5eiIvPiYjeGE7PC9zdmc+;" parent="14" vertex="1">
          <mxGeometry x="994.9345094832847" y="41.611965289558114" width="33.78" height="33.78" as="geometry" />
        </mxCell>
        <mxCell id="fJgO3W6yPN55QZMSzdzz-165" style="edgeStyle=orthogonalEdgeStyle;rounded=0;orthogonalLoop=1;jettySize=auto;html=1;" parent="14" source="fJgO3W6yPN55QZMSzdzz-125" target="fJgO3W6yPN55QZMSzdzz-124" edge="1">
          <mxGeometry relative="1" as="geometry">
            <Array as="points">
              <mxPoint x="1018" y="190" />
            </Array>
            <mxPoint x="931.2774649055123" y="248.3799999999999" as="sourcePoint" />
          </mxGeometry>
        </mxCell>
        <mxCell id="fJgO3W6yPN55QZMSzdzz-166" value="Spwan" style="edgeLabel;html=1;align=center;verticalAlign=middle;resizable=0;points=[];" parent="fJgO3W6yPN55QZMSzdzz-165" vertex="1" connectable="0">
          <mxGeometry x="-0.1715" relative="1" as="geometry">
            <mxPoint as="offset" />
          </mxGeometry>
        </mxCell>
        <mxCell id="fJgO3W6yPN55QZMSzdzz-173" style="edgeStyle=orthogonalEdgeStyle;rounded=0;orthogonalLoop=1;jettySize=auto;html=1;entryX=1;entryY=0.75;entryDx=0;entryDy=0;" parent="14" source="fJgO3W6yPN55QZMSzdzz-110" target="fJgO3W6yPN55QZMSzdzz-125" edge="1">
          <mxGeometry relative="1" as="geometry">
            <Array as="points">
              <mxPoint x="1070" y="242" />
            </Array>
          </mxGeometry>
        </mxCell>
        <mxCell id="fJgO3W6yPN55QZMSzdzz-182" value="" style="edgeStyle=orthogonalEdgeStyle;rounded=0;orthogonalLoop=1;jettySize=auto;html=1;" parent="14" target="fJgO3W6yPN55QZMSzdzz-123" edge="1">
          <mxGeometry relative="1" as="geometry">
            <Array as="points">
              <mxPoint x="900" y="194" />
              <mxPoint x="900" y="187" />
              <mxPoint x="862" y="187" />
              <mxPoint x="862" y="73" />
            </Array>
            <mxPoint x="890" y="194" as="sourcePoint" />
          </mxGeometry>
        </mxCell>
        <mxCell id="fJgO3W6yPN55QZMSzdzz-187" value="Spwan" style="edgeLabel;html=1;align=center;verticalAlign=middle;resizable=0;points=[];" parent="fJgO3W6yPN55QZMSzdzz-182" vertex="1" connectable="0">
          <mxGeometry x="0.1937" y="-2" relative="1" as="geometry">
            <mxPoint as="offset" />
          </mxGeometry>
        </mxCell>
        <mxCell id="fJgO3W6yPN55QZMSzdzz-125" value="Master Compute Node &lt;br&gt;for Digital &lt;br&gt;Model Creation" style="editableCssRules=.*;html=1;shape=image;verticalLabelPosition=bottom;labelBackgroundColor=#ffffff;verticalAlign=top;aspect=fixed;imageAspect=0;image=data:image/svg+xml,PHN2ZyB4bWxucz0iaHR0cDovL3d3dy53My5vcmcvMjAwMC9zdmciIHhtbG5zOnY9Imh0dHBzOi8vdmVjdGEuaW8vbmFubyIgd2lkdGg9IjE2LjAwMDAwMTkwNzM0ODYzMyIgaGVpZ2h0PSIxNi4wMDAwMDE5MDczNDg2MzMiIHZpZXdCb3g9Ii03LjE4NzExMDA2NTA3Mzg4N2UtMTMgLTIuNDg2ODk5MTA5MjkyMjI5N2UtMTUgMTYuMDAwMDAxOTA3MzQ4NjMzIDE2LjAwMDAwMTkwNzM0ODYzMyI+JiN4YTsJPHN0eWxlIHR5cGU9InRleHQvY3NzIj4mI3hhOwkuc3Qwe2ZpbGw6IzQyODVmNDt9JiN4YTsJPC9zdHlsZT4mI3hhOwk8cGF0aCBjbGFzcz0ic3QwIiBkPSJNOS44NCA1Ljc3SDYuMTZhLjM5LjM5IDAgMCAwLS4zOS4zOXYzLjY4YS4zOS4zOSAwIDAgMCAuMzkuMzloMy42N2EuMzkuMzkgMCAwIDAgLjM5LS4zOVY2LjE2YS4zOS4zOSAwIDAgMC0uMzktLjM5bTUuODItLjI5YS4zNS4zNSAwIDAgMCAuMzUtLjM1di0uNTdhLjM1LjM1IDAgMCAwLS4zNS0uMzVoLTEuNzlWMi41NGEuMzkuMzkgMCAwIDAtLjM5LS4zOUgxMS44Vi4zNWEuMzUuMzUgMCAwIDAtLjM1LS4zNWgtLjU4YS4zNS4zNSAwIDAgMC0uMzUuMzV2MS43OUg4LjYzVi4zNUEuMzUuMzUgMCAwIDAgOC4yOSAwaC0uNThhLjM1LjM1IDAgMCAwLS4zNS4zNXYxLjc5SDUuNDhWLjM1QS4zNS4zNSAwIDAgMCA1LjEzIDBoLS41OGEuMzUuMzUgMCAwIDAtLjM1LjM1djEuNzlIMi41M2EuMzkuMzkgMCAwIDAtLjM5LjM5VjQuMkguMzVhLjM1LjM1IDAgMCAwLS4zNS4zNXYuNThhLjM1LjM1IDAgMCAwIC4zNS4zNWgxLjc5djEuODhILjM1YS4zNS4zNSAwIDAgMC0uMzUuMzV2LjU4YS4zNS4zNSAwIDAgMCAuMzUuMzVoMS43OXYxLjg5SC4zNWEuMzUuMzUgMCAwIDAtLjM1LjM1di41N2EuMzUuMzUgMCAwIDAgLjM1LjM1aDEuNzl2MS42N2EuMzkuMzkgMCAwIDAgLjM5LjM5SDQuMnYxLjc5YS4zNS4zNSAwIDAgMCAuMzUuMzVoLjU4YS4zNS4zNSAwIDAgMCAuMzUtLjM1di0xLjc5aDEuODh2MS43OWEuMzUuMzUgMCAwIDAgLjM1LjM1aC41OGEuMzUuMzUgMCAwIDAgLjM1LS4zNXYtMS43OWgxLjg5djEuNzlhLjM1LjM1IDAgMCAwIC4zNS4zNWguNTdhLjM1LjM1IDAgMCAwIC4zNS0uMzV2LTEuNzloMS42OGEuMzkuMzkgMCAwIDAgLjM5LS4zOVYxMS44aDEuNzlhLjM1LjM1IDAgMCAwIC4zNC0uMzV2LS41N2EuMzUuMzUgMCAwIDAtLjM1LS4zNWgtMS43OVY4LjY0aDEuNzlhLjM1LjM1IDAgMCAwIC4zNS0uMzV2LS41OGEuMzUuMzUgMCAwIDAtLjM1LS4zNWgtMS43OVY1LjQ4em0tMy4xMSA3LjA3SDMuNDVWMy40Nmg5LjA5eiIvPiYjeGE7PC9zdmc+;" parent="14" vertex="1">
          <mxGeometry x="878.2174649055125" y="160.003897077675" width="109.06" height="109.06" as="geometry" />
        </mxCell>
        <mxCell id="fJgO3W6yPN55QZMSzdzz-175" value="secondary&lt;br&gt;&amp;nbsp;copy" style="image;aspect=fixed;perimeter=ellipsePerimeter;html=1;align=center;shadow=0;dashed=0;spacingTop=3;image=img/lib/active_directory/database.svg;" parent="14" vertex="1">
          <mxGeometry x="1084.7161620046754" y="570.0007801658363" width="54.06" height="40" as="geometry" />
        </mxCell>
        <mxCell id="fJgO3W6yPN55QZMSzdzz-127" value="&lt;font style=&quot;font-size: 9px;&quot;&gt;Digital Model&lt;br&gt;&amp;nbsp;Step 2&lt;/font&gt;" style="editableCssRules=.*;html=1;shape=image;verticalLabelPosition=bottom;labelBackgroundColor=#ffffff;verticalAlign=top;aspect=fixed;imageAspect=0;image=data:image/svg+xml,PHN2ZyB4bWxucz0iaHR0cDovL3d3dy53My5vcmcvMjAwMC9zdmciIHhtbG5zOnY9Imh0dHBzOi8vdmVjdGEuaW8vbmFubyIgd2lkdGg9IjE2LjAwMDAwMTkwNzM0ODYzMyIgaGVpZ2h0PSIxNi4wMDAwMDE5MDczNDg2MzMiIHZpZXdCb3g9Ii03LjE4NzExMDA2NTA3Mzg4N2UtMTMgLTIuNDg2ODk5MTA5MjkyMjI5N2UtMTUgMTYuMDAwMDAxOTA3MzQ4NjMzIDE2LjAwMDAwMTkwNzM0ODYzMyI+JiN4YTsJPHN0eWxlIHR5cGU9InRleHQvY3NzIj4mI3hhOwkuc3Qwe2ZpbGw6IzQyODVmNDt9JiN4YTsJPC9zdHlsZT4mI3hhOwk8cGF0aCBjbGFzcz0ic3QwIiBkPSJNOS44NCA1Ljc3SDYuMTZhLjM5LjM5IDAgMCAwLS4zOS4zOXYzLjY4YS4zOS4zOSAwIDAgMCAuMzkuMzloMy42N2EuMzkuMzkgMCAwIDAgLjM5LS4zOVY2LjE2YS4zOS4zOSAwIDAgMC0uMzktLjM5bTUuODItLjI5YS4zNS4zNSAwIDAgMCAuMzUtLjM1di0uNTdhLjM1LjM1IDAgMCAwLS4zNS0uMzVoLTEuNzlWMi41NGEuMzkuMzkgMCAwIDAtLjM5LS4zOUgxMS44Vi4zNWEuMzUuMzUgMCAwIDAtLjM1LS4zNWgtLjU4YS4zNS4zNSAwIDAgMC0uMzUuMzV2MS43OUg4LjYzVi4zNUEuMzUuMzUgMCAwIDAgOC4yOSAwaC0uNThhLjM1LjM1IDAgMCAwLS4zNS4zNXYxLjc5SDUuNDhWLjM1QS4zNS4zNSAwIDAgMCA1LjEzIDBoLS41OGEuMzUuMzUgMCAwIDAtLjM1LjM1djEuNzlIMi41M2EuMzkuMzkgMCAwIDAtLjM5LjM5VjQuMkguMzVhLjM1LjM1IDAgMCAwLS4zNS4zNXYuNThhLjM1LjM1IDAgMCAwIC4zNS4zNWgxLjc5djEuODhILjM1YS4zNS4zNSAwIDAgMC0uMzUuMzV2LjU4YS4zNS4zNSAwIDAgMCAuMzUuMzVoMS43OXYxLjg5SC4zNWEuMzUuMzUgMCAwIDAtLjM1LjM1di41N2EuMzUuMzUgMCAwIDAgLjM1LjM1aDEuNzl2MS42N2EuMzkuMzkgMCAwIDAgLjM5LjM5SDQuMnYxLjc5YS4zNS4zNSAwIDAgMCAuMzUuMzVoLjU4YS4zNS4zNSAwIDAgMCAuMzUtLjM1di0xLjc5aDEuODh2MS43OWEuMzUuMzUgMCAwIDAgLjM1LjM1aC41OGEuMzUuMzUgMCAwIDAgLjM1LS4zNXYtMS43OWgxLjg5djEuNzlhLjM1LjM1IDAgMCAwIC4zNS4zNWguNTdhLjM1LjM1IDAgMCAwIC4zNS0uMzV2LTEuNzloMS42OGEuMzkuMzkgMCAwIDAgLjM5LS4zOVYxMS44aDEuNzlhLjM1LjM1IDAgMCAwIC4zNC0uMzV2LS41N2EuMzUuMzUgMCAwIDAtLjM1LS4zNWgtMS43OVY4LjY0aDEuNzlhLjM1LjM1IDAgMCAwIC4zNS0uMzV2LS41OGEuMzUuMzUgMCAwIDAtLjM1LS4zNWgtMS43OVY1LjQ4em0tMy4xMSA3LjA3SDMuNDVWMy40Nmg5LjA5eiIvPiYjeGE7PC9zdmc+;" parent="14" vertex="1">
          <mxGeometry x="909.9993159597867" y="37.83196528955812" width="30" height="30" as="geometry" />
        </mxCell>
        <mxCell id="fJgO3W6yPN55QZMSzdzz-176" value="" style="sketch=0;points=[[0,0,0],[0.25,0,0],[0.5,0,0],[0.75,0,0],[1,0,0],[0,1,0],[0.25,1,0],[0.5,1,0],[0.75,1,0],[1,1,0],[0,0.25,0],[0,0.5,0],[0,0.75,0],[1,0.25,0],[1,0.5,0],[1,0.75,0]];outlineConnect=0;fontColor=#232F3E;gradientColor=#60A337;gradientDirection=north;fillColor=#277116;strokeColor=#ffffff;dashed=0;verticalLabelPosition=bottom;verticalAlign=top;align=center;html=1;fontSize=12;fontStyle=0;aspect=fixed;shape=mxgraph.aws4.resourceIcon;resIcon=mxgraph.aws4.elastic_file_system;" parent="14" vertex="1">
          <mxGeometry x="1027.3581238412198" y="390" width="80.93" height="80.93" as="geometry" />
        </mxCell>
        <mxCell id="fJgO3W6yPN55QZMSzdzz-180" style="edgeStyle=orthogonalEdgeStyle;rounded=0;orthogonalLoop=1;jettySize=auto;html=1;exitX=1.016;exitY=0.649;exitDx=0;exitDy=0;exitPerimeter=0;" parent="14" source="fJgO3W6yPN55QZMSzdzz-30" target="fJgO3W6yPN55QZMSzdzz-125" edge="1">
          <mxGeometry relative="1" as="geometry">
            <Array as="points">
              <mxPoint x="578" y="80" />
              <mxPoint x="630" y="80" />
              <mxPoint x="630" y="215" />
            </Array>
            <mxPoint x="590" y="80" as="sourcePoint" />
          </mxGeometry>
        </mxCell>
        <mxCell id="fJgO3W6yPN55QZMSzdzz-188" style="edgeStyle=orthogonalEdgeStyle;rounded=0;orthogonalLoop=1;jettySize=auto;html=1;" parent="14" source="fJgO3W6yPN55QZMSzdzz-73" target="fJgO3W6yPN55QZMSzdzz-125" edge="1">
          <mxGeometry relative="1" as="geometry">
            <Array as="points">
              <mxPoint x="670" y="166" />
              <mxPoint x="670" y="215" />
            </Array>
          </mxGeometry>
        </mxCell>
        <mxCell id="fJgO3W6yPN55QZMSzdzz-73" value="" style="strokeColor=#dddddd;shadow=1;strokeWidth=1;rounded=1;absoluteArcSize=1;arcSize=2;" parent="14" vertex="1">
          <mxGeometry x="377.26" y="131.96" width="212.74" height="68.04" as="geometry" />
        </mxCell>
        <mxCell id="fJgO3W6yPN55QZMSzdzz-74" value="&lt;font color=&quot;#000000&quot;&gt;Microservice&lt;br&gt;&lt;/font&gt;Get_StructureAtLocation()&lt;br&gt;Cloud Run" style="editableCssRules=.*;html=1;fontColor=#999999;shape=image;verticalLabelPosition=middle;labelBackgroundColor=#ffffff;verticalAlign=middle;labelPosition=right;align=left;spacingLeft=20;part=1;points=[];imageAspect=0;image=data:image/svg+xml,PHN2ZyB4bWxucz0iaHR0cDovL3d3dy53My5vcmcvMjAwMC9zdmciIHhtbG5zOnY9Imh0dHBzOi8vdmVjdGEuaW8vbmFubyIgd2lkdGg9IjM2NS40NjQ5OTY3NzA0MjQ5MyIgaGVpZ2h0PSIzNzkuMjIyOTk0NDYzNTc3OTUiIHZpZXdCb3g9IjAgMCA5Ni42OTU5OTkxNDU1MDc4MSAxMDAuMzM1OTk4NTM1MTU2MjUiPiYjeGE7PHN0eWxlIHR5cGU9InRleHQvY3NzIj4mI3hhOwkuc3Qwe2ZpbGw6IzQyODVmNDt9JiN4YTsJLnN0MXtmaWxsOiNhZWNiZmE7fSYjeGE7PC9zdHlsZT4mI3hhOwk8cGF0aCBjbGFzcz0ic3QwIiBkPSJNMjkuNzk0IDEwMC4zMzZMNDYuOTIgNTAuMTY4aDQ5Ljc3NnpNMCA5OS42NzFsMTIuOTc2LTQ5LjUwMkgyOS4yMkwxNi44OTcgOTIuMDU0eiIvPiYjeGE7CTxwYXRoIGNsYXNzPSJzdDEiIGQ9Ik0yOS43OTQgMEw0Ni45MiA1MC4xNjhoNDkuNzc2ek0wIC42NjZsMTIuOTc2IDQ5LjUwMkgyOS4yMkwxNi44OTcgOC4yODN6Ii8+JiN4YTs8L3N2Zz4=;" parent="fJgO3W6yPN55QZMSzdzz-73" vertex="1">
          <mxGeometry width="20" height="20" relative="1" as="geometry">
            <mxPoint x="15" y="15" as="offset" />
          </mxGeometry>
        </mxCell>
        <mxCell id="fJgO3W6yPN55QZMSzdzz-95" value="" style="shape=image;html=1;verticalAlign=top;verticalLabelPosition=bottom;labelBackgroundColor=#ffffff;imageAspect=0;aspect=fixed;image=https://cdn3.iconfinder.com/data/icons/UltimateGnome/128x128/mimetypes/text-x-c-plus--plus.png" parent="fJgO3W6yPN55QZMSzdzz-73" vertex="1">
          <mxGeometry x="181.13400063964718" y="36.87601695537287" width="19.86234258843267" height="19.86234258843267" as="geometry" />
        </mxCell>
        <mxCell id="fJgO3W6yPN55QZMSzdzz-196" value="gRPC&amp;nbsp; fetch model" style="edgeLabel;html=1;align=center;verticalAlign=middle;resizable=0;points=[];" parent="14" vertex="1" connectable="0">
          <mxGeometry x="727.8124123357555" y="200.00447761194036" as="geometry" />
        </mxCell>
        <mxCell id="r7-mcl1aZyQmIgYv29nD-28" style="edgeStyle=orthogonalEdgeStyle;rounded=0;orthogonalLoop=1;jettySize=auto;html=1;" edge="1" parent="14" source="r7-mcl1aZyQmIgYv29nD-27" target="fJgO3W6yPN55QZMSzdzz-46">
          <mxGeometry relative="1" as="geometry">
            <Array as="points">
              <mxPoint x="60" y="281" />
            </Array>
          </mxGeometry>
        </mxCell>
        <mxCell id="r7-mcl1aZyQmIgYv29nD-27" value="Service Registry" style="sketch=0;outlineConnect=0;fontColor=#232F3E;gradientColor=none;fillColor=#D45B07;strokeColor=none;dashed=0;verticalLabelPosition=bottom;verticalAlign=top;align=center;html=1;fontSize=12;fontStyle=0;aspect=fixed;pointerEvents=1;shape=mxgraph.aws4.registry;" vertex="1" parent="14">
          <mxGeometry x="26.840000000000007" y="81.99999999999997" width="78" height="78" as="geometry" />
        </mxCell>
        <mxCell id="r7-mcl1aZyQmIgYv29nD-29" value="" style="strokeColor=#dddddd;shadow=1;strokeWidth=1;rounded=1;absoluteArcSize=1;arcSize=2;" vertex="1" parent="14">
          <mxGeometry x="387.26" y="447.24" width="182.74" height="61.52" as="geometry" />
        </mxCell>
        <mxCell id="r7-mcl1aZyQmIgYv29nD-30" value="&lt;font color=&quot;#000000&quot;&gt;Microservice&lt;br&gt;&lt;/font&gt;Manage_Data&lt;br&gt;Cloud Run" style="editableCssRules=.*;html=1;fontColor=#999999;shape=image;verticalLabelPosition=middle;labelBackgroundColor=#ffffff;verticalAlign=middle;labelPosition=right;align=left;spacingLeft=20;part=1;points=[];imageAspect=0;image=data:image/svg+xml,PHN2ZyB4bWxucz0iaHR0cDovL3d3dy53My5vcmcvMjAwMC9zdmciIHhtbG5zOnY9Imh0dHBzOi8vdmVjdGEuaW8vbmFubyIgd2lkdGg9IjM2NS40NjQ5OTY3NzA0MjQ5MyIgaGVpZ2h0PSIzNzkuMjIyOTk0NDYzNTc3OTUiIHZpZXdCb3g9IjAgMCA5Ni42OTU5OTkxNDU1MDc4MSAxMDAuMzM1OTk4NTM1MTU2MjUiPiYjeGE7PHN0eWxlIHR5cGU9InRleHQvY3NzIj4mI3hhOwkuc3Qwe2ZpbGw6IzQyODVmNDt9JiN4YTsJLnN0MXtmaWxsOiNhZWNiZmE7fSYjeGE7PC9zdHlsZT4mI3hhOwk8cGF0aCBjbGFzcz0ic3QwIiBkPSJNMjkuNzk0IDEwMC4zMzZMNDYuOTIgNTAuMTY4aDQ5Ljc3NnpNMCA5OS42NzFsMTIuOTc2LTQ5LjUwMkgyOS4yMkwxNi44OTcgOTIuMDU0eiIvPiYjeGE7CTxwYXRoIGNsYXNzPSJzdDEiIGQ9Ik0yOS43OTQgMEw0Ni45MiA1MC4xNjhoNDkuNzc2ek0wIC42NjZsMTIuOTc2IDQ5LjUwMkgyOS4yMkwxNi44OTcgOC4yODN6Ii8+JiN4YTs8L3N2Zz4=;" vertex="1" parent="r7-mcl1aZyQmIgYv29nD-29">
          <mxGeometry width="20" height="20" relative="1" as="geometry">
            <mxPoint x="15" y="15" as="offset" />
          </mxGeometry>
        </mxCell>
        <mxCell id="r7-mcl1aZyQmIgYv29nD-31" value="" style="shape=image;html=1;verticalAlign=top;verticalLabelPosition=bottom;labelBackgroundColor=#ffffff;imageAspect=0;aspect=fixed;image=https://cdn4.iconfinder.com/data/icons/scripting-and-programming-languages/512/Python_logo-128.png" vertex="1" parent="r7-mcl1aZyQmIgYv29nD-29">
          <mxGeometry x="154.43969608545632" y="25.110204081632656" width="20.702150910256893" height="20.702150910256893" as="geometry" />
        </mxCell>
        <mxCell id="r7-mcl1aZyQmIgYv29nD-32" style="edgeStyle=orthogonalEdgeStyle;rounded=0;orthogonalLoop=1;jettySize=auto;html=1;" edge="1" parent="14" target="fJgO3W6yPN55QZMSzdzz-109">
          <mxGeometry relative="1" as="geometry">
            <mxPoint x="552" y="510" as="sourcePoint" />
            <Array as="points">
              <mxPoint x="552" y="570" />
            </Array>
          </mxGeometry>
        </mxCell>
        <mxCell id="r7-mcl1aZyQmIgYv29nD-33" value="fetch images&amp;nbsp;" style="edgeLabel;html=1;align=center;verticalAlign=middle;resizable=0;points=[];" vertex="1" connectable="0" parent="14">
          <mxGeometry x="1067.8225350944876" y="335.99" as="geometry" />
        </mxCell>
        <mxCell id="fJgO3W6yPN55QZMSzdzz-117" value="API Layer" style="shape=rect;html=1;rounded=1;strokeWidth=2;verticalAlign=top;whiteSpace=wrap;align=center;fillColor=none;" parent="14" vertex="1">
          <mxGeometry x="10" y="40" width="240" height="530" as="geometry" />
        </mxCell>
        <mxCell id="fJgO3W6yPN55QZMSzdzz-118" value="Application Layer" style="shape=rect;html=1;rounded=1;strokeWidth=2;verticalAlign=top;whiteSpace=wrap;align=center;fillColor=none;" parent="14" vertex="1">
          <mxGeometry x="337.81" y="10" width="342.19" height="310" as="geometry" />
        </mxCell>
        <mxCell id="r7-mcl1aZyQmIgYv29nD-35" value="Data Management Layer" style="shape=rect;html=1;rounded=1;strokeWidth=2;verticalAlign=top;whiteSpace=wrap;align=center;fillColor=none;" vertex="1" parent="14">
          <mxGeometry x="360" y="380" width="250" height="210" as="geometry" />
        </mxCell>
        <mxCell id="fJgO3W6yPN55QZMSzdzz-119" value="Persistent Layer" style="shape=rect;html=1;rounded=1;strokeWidth=2;verticalAlign=top;whiteSpace=wrap;align=center;fillColor=none;" parent="14" vertex="1">
          <mxGeometry x="800" y="370" width="360" height="300" as="geometry" />
        </mxCell>
        <mxCell id="r7-mcl1aZyQmIgYv29nD-37" style="edgeStyle=orthogonalEdgeStyle;rounded=0;orthogonalLoop=1;jettySize=auto;html=1;exitX=0.5;exitY=0;exitDx=0;exitDy=0;" edge="1" parent="14" source="fJgO3W6yPN55QZMSzdzz-125">
          <mxGeometry relative="1" as="geometry">
            <Array as="points">
              <mxPoint x="933" y="150" />
              <mxPoint x="931" y="150" />
            </Array>
            <mxPoint x="900" y="182.82999999999998" as="sourcePoint" />
            <mxPoint x="931" y="67.82999999999998" as="targetPoint" />
          </mxGeometry>
        </mxCell>
        <mxCell id="r7-mcl1aZyQmIgYv29nD-38" value="Spwan" style="edgeLabel;html=1;align=center;verticalAlign=middle;resizable=0;points=[];" vertex="1" connectable="0" parent="r7-mcl1aZyQmIgYv29nD-37">
          <mxGeometry x="-0.1715" relative="1" as="geometry">
            <mxPoint as="offset" />
          </mxGeometry>
        </mxCell>
        <mxCell id="r7-mcl1aZyQmIgYv29nD-36" value="Business Logic Layer" style="shape=rect;html=1;rounded=1;strokeWidth=2;verticalAlign=top;whiteSpace=wrap;align=center;fillColor=none;" vertex="1" parent="14">
          <mxGeometry x="760" width="382.25" height="330" as="geometry" />
        </mxCell>
        <mxCell id="2" value="Digital Patient Model Service API" style="fillColor=#4DA1F5;strokeColor=none;shadow=1;gradientColor=none;fontSize=14;align=left;spacingLeft=50;fontColor=#ffffff;html=1;" parent="1" vertex="1">
          <mxGeometry x="220" y="30" width="300" height="40" as="geometry" />
        </mxCell>
        <mxCell id="fJgO3W6yPN55QZMSzdzz-42" style="edgeStyle=orthogonalEdgeStyle;rounded=0;orthogonalLoop=1;jettySize=auto;html=1;" parent="1" source="fJgO3W6yPN55QZMSzdzz-36" edge="1" target="fJgO3W6yPN55QZMSzdzz-117">
          <mxGeometry relative="1" as="geometry">
            <mxPoint x="260" y="409" as="targetPoint" />
            <Array as="points">
              <mxPoint x="220" y="420" />
              <mxPoint x="220" y="420" />
            </Array>
          </mxGeometry>
        </mxCell>
        <mxCell id="fJgO3W6yPN55QZMSzdzz-36" value="Desktop" style="strokeColor=#dddddd;shadow=1;strokeWidth=1;rounded=1;absoluteArcSize=1;arcSize=2;labelPosition=center;verticalLabelPosition=middle;align=center;verticalAlign=bottom;spacingLeft=0;fontColor=#999999;fontSize=12;whiteSpace=wrap;spacingBottom=2;html=1;" parent="1" vertex="1">
          <mxGeometry x="10" y="350" width="80" height="101.11000000000001" as="geometry" />
        </mxCell>
        <mxCell id="fJgO3W6yPN55QZMSzdzz-37" value="" style="sketch=0;dashed=0;connectable=0;html=1;fillColor=#757575;strokeColor=none;shape=mxgraph.gcp2.desktop;part=1;" parent="fJgO3W6yPN55QZMSzdzz-36" vertex="1">
          <mxGeometry x="0.5" width="50" height="45" relative="1" as="geometry">
            <mxPoint x="-25" y="12.5" as="offset" />
          </mxGeometry>
        </mxCell>
        <mxCell id="r7-mcl1aZyQmIgYv29nD-19" value="Desktop" style="strokeColor=#dddddd;shadow=1;strokeWidth=1;rounded=1;absoluteArcSize=1;arcSize=2;labelPosition=center;verticalLabelPosition=middle;align=center;verticalAlign=bottom;spacingLeft=0;fontColor=#999999;fontSize=12;whiteSpace=wrap;spacingBottom=2;html=1;" vertex="1" parent="fJgO3W6yPN55QZMSzdzz-36">
          <mxGeometry x="10" y="16.110000000000014" width="70" height="85" as="geometry" />
        </mxCell>
        <mxCell id="r7-mcl1aZyQmIgYv29nD-20" value="" style="sketch=0;dashed=0;connectable=0;html=1;fillColor=#757575;strokeColor=none;shape=mxgraph.gcp2.desktop;part=1;" vertex="1" parent="r7-mcl1aZyQmIgYv29nD-19">
          <mxGeometry x="0.5" width="50" height="45" relative="1" as="geometry">
            <mxPoint x="-25" y="12.5" as="offset" />
          </mxGeometry>
        </mxCell>
        <mxCell id="fJgO3W6yPN55QZMSzdzz-47" value="Client &lt;br&gt;Applications" style="text;html=1;align=center;verticalAlign=middle;resizable=0;points=[];autosize=1;strokeColor=none;fillColor=none;" parent="1" vertex="1">
          <mxGeometry x="20" y="230" width="90" height="40" as="geometry" />
        </mxCell>
        <mxCell id="fJgO3W6yPN55QZMSzdzz-57" style="edgeStyle=orthogonalEdgeStyle;rounded=0;orthogonalLoop=1;jettySize=auto;html=1;exitX=0.5;exitY=1;exitDx=0;exitDy=0;" parent="1" source="14" target="14" edge="1">
          <mxGeometry relative="1" as="geometry" />
        </mxCell>
        <mxCell id="fJgO3W6yPN55QZMSzdzz-102" value="Req_1: &lt;br&gt;Get_Segementation()" style="text;html=1;align=center;verticalAlign=middle;resizable=0;points=[];autosize=1;strokeColor=none;fillColor=none;" parent="1" vertex="1">
          <mxGeometry x="100" y="344" width="140" height="40" as="geometry" />
        </mxCell>
        <mxCell id="fJgO3W6yPN55QZMSzdzz-103" value="Req_2: Upload Scan" style="text;html=1;align=center;verticalAlign=middle;resizable=0;points=[];autosize=1;strokeColor=none;fillColor=none;" parent="1" vertex="1">
          <mxGeometry x="105" y="384" width="130" height="30" as="geometry" />
        </mxCell>
        <mxCell id="fJgO3W6yPN55QZMSzdzz-104" value="Req_4: &lt;br&gt;Delete Scan" style="text;html=1;align=center;verticalAlign=middle;resizable=0;points=[];autosize=1;strokeColor=none;fillColor=none;" parent="1" vertex="1">
          <mxGeometry x="125" y="480" width="90" height="40" as="geometry" />
        </mxCell>
        <mxCell id="fJgO3W6yPN55QZMSzdzz-105" value="Req_3: &lt;br&gt;Get_StructureAtLocation()" style="text;html=1;align=center;verticalAlign=middle;resizable=0;points=[];autosize=1;strokeColor=none;fillColor=none;" parent="1" vertex="1">
          <mxGeometry x="90" y="430" width="160" height="40" as="geometry" />
        </mxCell>
      </root>
    </mxGraphModel>
  </diagram>
</mxfile>
